<?xml version="1.0" encoding="UTF-8"?>
<svg width="128pt" height="128pt" version="1.1" viewBox="0 0 128 128" xmlns="http://www.w3.org/2000/svg">
 <path d="m64 0c-35.363 0-64 28.637-64 64s28.637 64 64 64 64-28.637 64-64-28.637-64-64-64zm6.2227 22.984c5.2461 0 9.5 4.2539 9.5 9.5039 0 5.2422-4.2539 9.5-9.5 9.5-5.25 0-9.5039-4.2539-9.5039-9.5 0-5.25 4.2539-9.5039 9.5039-9.5039zm-19.414 34.773 0.64844-4.8203c0.042969-0.31641 0.28516-0.55859 0.60156-0.60156l21.598-2.8438c0.52734-0.070313 0.93359 0.44922 0.74219 0.94531-5.4453 14.055-11.078 28.059-12.293 43.098-0.10938 1.3711 1.0938 2.4688 2.4492 2.2344 4.4844-0.77734 8.1484-4.1211 11.66-7.9375 0.25391-0.27344 0.67188-0.30078 0.96094-0.0625l2.6797 2.2305c0.28125 0.23438 0.33594 0.64062 0.125 0.9375-5.7656 8.168-24.387 20.324-30.535 10.266-4.9883-8.1602 3.4336-27.965 6.8828-41.758 0.10938-0.44141-0.21875-0.86328-0.67188-0.86719l-4.1562-0.035156c-0.42578-0.003907-0.74609-0.37109-0.6875-0.79297z" fill="#e57018"/>
</svg>
