<?xml version="1.0" encoding="UTF-8"?>
<svg width="128pt" height="128pt" version="1.1" viewBox="0 0 128 128" xmlns="http://www.w3.org/2000/svg">
 <g fill="#e57018">
  <path d="m64 54.152c-0.73828 0-1.7227-0.24609-2.4609-0.49219l-32-11.078v33.727c0 0.98438 0.49219 1.7227 1.4766 2.2148 10.34 4.9219 21.66 7.3828 32.984 7.3828 11.57 0 22.645-2.4609 32.984-7.3828 0.73828-0.49219 1.4766-1.2305 1.4766-2.2148v-33.723l-32 11.078c-0.73828 0.24219-1.7227 0.48828-2.4609 0.48828z"/>
  <path d="m105.85 86.645v32.738c0 1.9688 1.7227 3.6914 3.6914 3.6914h7.3828c1.9688 0 3.6914-1.7227 3.6914-3.6914l0.003907-32.738c-2.2148 1.2305-4.6758 1.9688-7.3828 1.9688-2.7109 0.003907-5.1719-0.73828-7.3867-1.9688z"/>
  <path d="m115.69 64.246v-32.738l5.6602-1.9688c0.98438-0.24609 1.7227-1.2305 1.7227-2.2148s-0.73828-1.9688-1.7227-2.2148l-56.617-19.691c-0.49219-0.24609-1.2305-0.24609-1.7227 0l-56.617 19.691c-0.73438 0-1.4727 0.98438-1.4727 1.9688s0.73828 1.9688 1.7227 2.2148l56.617 19.691c0.24609 0 0.49219 0.24609 0.73828 0.24609s0.49219 0 0.73828-0.24609l46.031-16v31.262c-4.1836 0.98438-7.3828 4.9219-7.3828 9.6016 0 5.4141 4.4297 9.8477 9.8477 9.8477 5.4141 0 9.8477-4.4297 9.8477-9.8477-0.003906-4.6797-3.207-8.3711-7.3906-9.6016z"/>
 </g>
</svg>
