<?xml version="1.0" encoding="UTF-8"?>
<svg width="512pt" height="512pt" version="1.1" viewBox="0 0 512 512" xmlns="http://www.w3.org/2000/svg">
 <g fill="#e57018">
  <path d="m370.18 456.7h81.406c9.2148 0 16.895-7.6797 16.895-16.895l0.003907-161.79h-98.305z"/>
  <path d="m290.3 278.02h55.297v179.2h-55.297z"/>
  <path d="m167.94 376.32v63.488c0 9.2148 7.6797 16.895 16.895 16.895h81.406v-179.2h-27.137z"/>
  <path d="m263.17 175.11-27.648-19.969c-7.6797-5.6328-17.922-3.5859-23.551 3.5859l-25.09 34.305c-3.5859-7.168-8.7031-13.312-15.359-17.922-22.016-15.871-52.734-10.754-69.121 11.777-22.016 30.207-12.801 57.855-1.0234 84.48-29.184-3.0703-57.855-3.0703-79.871 27.137-15.871 22.016-11.266 53.246 10.238 69.121 6.6562 4.6094 13.824 7.6797 22.016 8.7031l-25.09 34.305c-5.6328 7.6797-3.5859 17.922 3.5859 23.551l27.648 19.969c7.6797 5.6328 17.922 3.5859 23.551-3.5859l182.27-251.39c6.6562-8.1953 5.1211-18.949-2.5586-24.066zm-182.79 164.35c-3.5859 5.1211-9.2148 8.1914-14.848 9.2148-6.1445 1.0234-11.777-0.51172-16.895-3.5859-10.238-7.168-11.777-21.504-4.6094-31.742 9.7266-13.312 20.992-17.406 36.863-17.406 8.1914 0 17.406 1.0234 28.672 2.5586h0.51172zm80.387-111.11-29.695 40.961s0-0.51172-0.51172-0.51172c-14.336-30.207-20.992-46.594-6.1445-67.07 4.6094-6.1445 11.777-9.7266 18.945-9.7266 4.6094 0 9.2148 1.5352 12.801 4.0977 4.6094 3.5859 7.6797 8.7031 8.7031 14.848 1.0195 6.1406-0.51563 12.281-4.0977 17.402z"/>
  <path d="m272.38 76.289-16.383-1.5352c-1.0234 0-1.5352-0.51172-2.0469-1.5352l-6.1445-14.848c-2.0469-4.6094-8.1914-4.6094-10.238 0l-6.1445 14.848c-0.51172 1.0234-1.0234 1.5352-2.0469 1.5352l-16.383 1.0234c-5.1211 0.51172-6.6562 6.6562-3.0703 9.7266l12.289 10.238c0.51172 0.51172 1.0234 1.5352 1.0234 2.5586l-4.0977 15.871c-1.0234 4.6094 4.0977 8.7031 8.1914 6.1445l13.824-8.7031c1.0234-0.51172 1.5352-0.51172 2.5586 0l13.824 8.7031c4.0977 2.5586 9.2148-1.0234 8.1914-6.1445l-4.0977-15.871c0-1.0234 0-2.0469 1.0234-2.5586l12.289-10.238c4.0938-3.0703 2.0469-9.2148-2.5625-9.2148z"/>
  <path d="m497.15 145.92c3.5859-3.0703 1.5352-9.2148-3.0703-9.7266l-16.383-1.0234c-1.0234 0-1.5352-0.51172-2.0469-1.5352l-6.1445-14.848c-2.0469-4.6094-8.1914-4.6094-10.238 0l-6.1445 14.848c-0.51172 1.0234-1.0234 1.5352-2.0469 1.5352l-15.879 1.0195c-5.1211 0.51172-6.6562 6.6562-3.0703 9.7266l12.289 10.238c1.0234 0.51562 1.0234 1.5391 1.0234 2.5625l-4.0977 15.871c-1.0234 4.6094 4.0977 8.707 8.1914 5.6328l13.824-8.7031c1.0234-0.51172 1.5352-0.51172 2.5586 0l13.824 8.7031c4.0977 2.5586 9.2148-1.0234 8.1914-6.1445l-4.0938-15.359c0-1.0234 0-2.0469 1.0234-2.5586z"/>
  <path d="m371.2 229.89c24.574-1.5352 44.031-22.527 41.984-48.129-2.0469-23.551-22.527-40.961-46.078-40.961h-19.969c-8.7031 0-16.383-5.6328-17.922-14.336-2.5586-11.777 6.6562-21.504 17.406-21.504h22.016c8.7031 0 15.871 6.1445 17.406 13.824 0.51172 2.0469 2.5586 4.0977 4.6094 4.0977h16.895c3.0703 0 5.1211-2.5586 4.6094-5.6328-2.5586-21.504-20.48-37.887-41.984-38.91v-14.848c0-2.5586-2.0469-4.6094-4.6094-4.6094h-16.895c-2.5586 0-4.6094 2.0469-4.6094 4.6094v14.848c-24.574 1.5352-44.031 22.527-41.984 48.129 2.0469 23.551 22.527 40.961 46.078 40.961h20.48c11.266 0 19.969 10.238 17.406 21.504-1.5352 8.1914-9.7266 14.336-17.922 14.336h-21.504c-8.7031 0-15.871-6.1445-17.406-13.824-0.51172-2.0469-2.5586-4.0977-4.6094-4.0977h-16.895c-3.0703 0-5.1211 2.5586-4.6094 5.6328 2.5586 21.504 20.48 37.887 41.984 38.91v14.336c0 2.5586 2.0469 4.6094 4.6094 4.6094h16.895c2.5586 0 4.6094-2.0469 4.6094-4.6094z"/>
 </g>
</svg>
