<?xml version="1.0" encoding="UTF-8"?>
<svg width="512pt" height="512pt" version="1.1" viewBox="0 0 512 512" xmlns="http://www.w3.org/2000/svg">
 <path d="m463.16 449.43c-4.8633-29.336-22.273-49.664-48.539-63.281-21.707-11.211-44.953-19.508-67.07-30.105-10.238-5.1211-39.578-32.973-37.477-43.469 13.723-2.6641 79.055-20.48 74.344-37.07h-0.003906c-3.8438-10.547-6.6055-21.457-8.2422-32.562-1.8945-23.707-1.6367-47.668-3.0703-71.68-2.2031-36.609-5.1211-73.062-23.91-106.04-17.871-31.285-56.578-52.738-93.188-52.43-36.609 0.30469-75.316 21.145-93.184 52.684-18.637 32.973-21.707 69.426-23.91 106.04-1.4336 23.758-1.1758 47.719-3.0703 71.68h-0.003907c-1.6367 11.105-4.3984 22.016-8.2422 32.562-4.7109 16.078 60.621 34.152 74.344 36.812 2.0977 10.496-27.34 38.605-37.477 43.469-22.117 10.598-45.363 18.895-67.07 30.105-26.266 13.621-43.672 33.945-48.539 63.281-0.76953 1.5352-1.2812 38.656-1.2812 38.656v0.003906c0 6.1172 4.9414 11.082 11.059 11.109h48.23c1.9961-6.3984 3.8906-11.828 4.5586-13.312 1.5859-3.4297 3.1758-6.9648 4.6602-10.496h-0.003907c1.332-3.5352 2.0078-7.2812 1.9961-11.059 0.58203-11.16 1.1602-22.324 1.7422-33.484-0.003906-1.8711 0.14844-3.7383 0.46094-5.582 0.90234-5.0781 4.6484-9.1836 9.625-10.547 2.6797-0.97656 5.5859-1.1484 8.3594-0.49609 2.7773 0.65625 5.2969 2.1094 7.2578 4.1836 2.3398 2.3633 3.7539 5.4883 3.9922 8.8047 0.074219 0.32422 0.19531 0.63672 0.35938 0.92187 0.30078-0.18359 0.5625-0.42578 0.76562-0.71484 6.1953-11.98 12.391-24.012 18.484-35.84 2.1797-4.5664 6.5391-7.6992 11.562-8.3125 5.0195-0.60938 10.008 1.3828 13.219 5.293 3.9766 4.3516 4.7344 10.754 1.8945 15.922-3.2773 6.707-13.465 26.367-15.359 29.695 2.5859 0.75781 5.0039 2.0117 7.1172 3.6875 4.6211 3.3242 7.2578 8.75 7.0117 14.438-0.039063 0.49219 0.19922 0.96484 0.61719 1.2305 4.9414 3.4922 7.6992 9.3203 7.2695 15.359-0.089843 0.94531 0.20703 1.8867 0.82031 2.6094 1.9766 2.4688 3.2305 5.4336 3.6172 8.5703 0.39063 3.1406-0.10156 6.3242-1.418 9.1953-1.125 3.0391-2.8672 5.8125-5.1211 8.1406-0.75 0.69141-1.5352 1.3398-2.3516 1.9492h255.38c6.1172-0.03125 11.059-4.9961 11.059-11.113 0 0-0.51172-37.273-1.2773-38.809z" fill="#e57018"/>
</svg>
