<?xml version="1.0" encoding="UTF-8"?>
<svg width="128pt" height="128pt" version="1.1" viewBox="0 0 128 128" xmlns="http://www.w3.org/2000/svg">
 <path d="m101.12 53.652c4.5977 0.35547 8.1602-2.1641 9.8711-3.6172 3.4844-2.9492 5.5586 0.15625 2.2031 4.3359-2.7695 3.4492-7.6094 5.3477-11.25 6.3438v0.12109c0 1.25-0.074218 2.4805-0.21484 3.6992h-23.633v29.047c-0.44141 0.18359-0.88672 0.36328-1.3398 0.53516 0 2.8984 1.125 9.3047-3.0234 9.3047h-2.6953c-3.7148 0-3.0234-4.4219-3.0234-6.918-5.4609 0.94531-11.105 0.94922-16.566 0.027344 0 2.4883 0.6875 6.8906-3.0234 6.8906h-2.6953c-4.1406 0-3.0234-6.3555-3.0234-9.2461-11.562-4.3594-20.426-13.039-23.824-23.672l-8.1758-1.4922c-1.6367-0.29688-3.0234-1.3594-3.0234-3.0234v-10.305c0-1.6641 1.3984-2.6758 3.0234-3.0234l8.2578-1.7578c1.8789-5.6992 5.3281-10.832 9.9258-15.023l-7.8633-10.02 20.695 2.0195c22.172-8.9453 53.496 0.45312 59.395 25.766zm-21.488 12.398h26.992v3.5078h-26.992zm28.355 7.3359c-6.8125 0-12.332 5.5195-12.332 12.332s5.5195 12.332 12.332 12.332 12.332-5.5195 12.332-12.332-5.5195-12.332-12.332-12.332zm-0.44531 20.715v-1.668c-2.4336-0.30078-3.8477-1.5039-4.0352-4.0547l1.668-0.32422c0.19922 1.3789 0.78906 2.8086 2.3672 2.9766v-5.2305c-5.4727-1.4102-4.7109-7.1992 0-7.6719v-0.79688h0.98438v0.79688c2.0039 0.19141 3.3125 1.3203 3.6016 3.3555l-1.707 0.26562c-0.17578-1.1719-0.6875-1.9648-1.8945-2.2148v4.8008c6.375 1.6328 4.2422 7.875 0 8.082v1.6875h-0.98438zm0-14.59c-2.5508 0.38672-3.0664 3.7734 0 4.5664zm0.98438 11.52c2.3906-0.28906 3.6406-4.0352 0-4.9805zm-28.898-1.1172h15.094c0.39844 1.2578 0.96875 2.4336 1.6875 3.5078h-16.781zm0-4.7734h14.465c-0.042969 1.1836 0.050781 2.3477 0.29688 3.5078h-14.762zm0-4.7734h15.516c-0.46094 1.1055-0.78125 2.2812-0.94531 3.5078h-14.574v-3.5078zm0-4.7734h18.82c-1.0977 1.0625-1.9688 2.1602-2.6992 3.5078h-16.121zm0-4.7734h26.992v1.0547c-2.4492 0.23828-4.7148 1.1133-6.625 2.457h-20.367zm-42.043-20.434c0 6.4688-9.8359 6.4688-9.8359 0s9.8359-6.4688 9.8359 0zm-8.2617 0c0 4.4023 6.6875 4.4023 6.6875 0 0-4.3984-6.6875-4.3984-6.6875 0zm20.207-20.543h20.855c4.1445 0 4.1367 6.3008 0 6.3008h-20.855c-4.1406 0-4.1367-6.3008 0-6.3008zm20.855 1.5742h-20.855c-2.0703 0-2.0625 3.1523 0 3.1523h20.855c2.0703 0 2.0625-3.1523 0-3.1523z" fill="#e57018" fill-rule="evenodd"/>
</svg>
