<?xml version="1.0" encoding="UTF-8"?>
<svg width="128pt" height="128pt" version="1.1" viewBox="0 0 128 128" xmlns="http://www.w3.org/2000/svg">
 <path d="m37.699 15.641v42.641c1.8633 0.050781 3.6836 0.24609 5.4414 0.64062 0.67969 0.15234 1.1406 0.78516 1.0781 1.4766 0 0-0.14062 1.625 0 3.3203 0.070312 0.84766 0.21875 1.7227 0.44141 2.3203 0.22266 0.59766 0.45312 0.83594 0.55859 0.87891s0.45703 0.058593 1.0391-0.19922c0.58203-0.26172 1.3047-0.77734 1.9609-1.3203 1.3125-1.082 2.3594-2.3203 2.3594-2.3203l0.003906 0.003906c0.46094-0.53906 1.2539-0.64453 1.8398-0.24219 3.4258 2.2305 6.3281 5.1836 8.5195 8.6406 0.36719 0.58594 0.24609 1.3516-0.28125 1.8008 0 0-1.2617 1.0195-2.3594 2.3203-0.55078 0.64844-1.0508 1.3789-1.3203 1.9609-0.26953 0.57812-0.24219 0.93359-0.19922 1.0391 0.042969 0.10547 0.28516 0.33203 0.87891 0.55859 0.59766 0.22656 1.4336 0.39844 2.2812 0.48047 1.6953 0.16016 3.3203 0.039063 3.3203 0.039063 0.70703-0.058594 1.3438 0.42578 1.4766 1.1211 0.40234 1.9023 0.60156 3.8594 0.60156 5.8789v0.039062h51.441v-71.078zm27.84 16.078h18.121c0.97656 0 1.8008 0.80859 1.8008 1.8008v3h3.5586c0.98438 0 1.8008 0.81641 1.8008 1.8008v30.559c0 0.98438-0.81641 1.8008-1.8008 1.8008h-18.16c-0.98438 0-1.8008-0.81641-1.8008-1.8008v-3.0391h-3.5195c-0.97656 0-1.8398-0.76953-1.8398-1.7617v-30.559c0-0.99219 0.86328-1.8008 1.8398-1.8008zm-0.082031 1.7188c-0.023437 0.011719-0.039062 0.054688-0.039062 0.078125v30.559c0 0.054687 0.050781 0.078125 0.12109 0.078125h3.5195v-25.84c0.125-0.83594 0.80469-1.7812 1.8008-1.8008h12.879v-3c0-0.054688-0.011719-0.078125-0.078125-0.078125h-18.121c-0.035156 0-0.058593-0.011719-0.082031 0zm5.3984 4.8008c-0.039063 0.003907-0.066407 0.027344-0.078125 0.078125v30.559c0 0.0625 0.015625 0.078125 0.078125 0.078125h18.16c0.0625 0 0.078125-0.015625 0.078125-0.078125v-30.559c0-0.0625-0.015625-0.078125-0.078125-0.078125zm-33.961 22.762c-1.457 0-2.8516 0.20703-4.2383 0.44141 0.027344 0.69922 0.082031 1.1602-0.039062 2.4414-0.09375 0.99609-0.26563 2.0625-0.64063 3.0391s-0.97266 1.9727-2.1211 2.4414c-1.1484 0.46484-2.2891 0.19922-3.2383-0.23828-0.94922-0.4375-1.8359-1.0742-2.6016-1.7188-0.96094-0.8125-1.207-1.1992-1.6797-1.7188-2.4336 1.6914-4.5586 3.75-6.2812 6.1602 0.51172 0.47266 0.89844 0.76562 1.7188 1.7617 0.63672 0.76953 1.2539 1.6055 1.6797 2.5586 0.42578 0.95703 0.67969 2.1406 0.19922 3.2812-0.48047 1.1406-1.5 1.7188-2.4805 2.0781-0.98047 0.36328-2.043 0.51562-3.0391 0.60156-1.2578 0.10547-1.6992 0.035156-2.3984 0-0.26953 1.4883-0.51953 2.9961-0.51953 4.5586 0 1.457 0.20703 2.8516 0.44141 4.2383 0.69922-0.03125 1.1602-0.082031 2.4414 0.039063 0.99609 0.09375 2.0625 0.26562 3.0391 0.64062 0.97656 0.375 1.9727 0.97266 2.4414 2.1211 0.46875 1.1484 0.19922 2.2891-0.23828 3.2383-0.4375 0.94922-1.0742 1.8359-1.7188 2.6016-0.83203 0.98438-1.2422 1.2539-1.7617 1.7188 1.6875 2.4219 3.7969 4.5234 6.1992 6.2383 0.47266-0.51172 0.76562-0.89844 1.7617-1.7188 0.77344-0.63672 1.6055-1.2539 2.5586-1.6797 0.95703-0.42578 2.0977-0.67969 3.2383-0.19922 1.1406 0.48047 1.7578 1.5 2.1211 2.4805s0.51562 2.0039 0.60156 3c0.10547 1.2812 0.039062 1.7422 0 2.4414 1.4883 0.26953 2.9961 0.51953 4.5586 0.51953 1.457 0 2.8516-0.20703 4.2383-0.44141-0.027344-0.69922-0.082031-1.1602 0.039062-2.4414 0.09375-0.99609 0.26562-2.0625 0.64062-3.0391 0.375-0.97656 0.97266-1.9727 2.1211-2.4414 1.1484-0.46484 2.2891-0.19922 3.2383 0.23828s1.7969 1.0742 2.5586 1.7188c0.98438 0.83203 1.2539 1.2422 1.7188 1.7617 2.4336-1.6914 4.5586-3.7891 6.2812-6.1992-0.51172-0.47266-0.89844-0.76563-1.7188-1.7617-0.63672-0.77344-1.2539-1.6055-1.6797-2.5586-0.42578-0.95703-0.72266-2.0977-0.23828-3.2383 0.48047-1.1406 1.5-1.7578 2.4805-2.1211s2.043-0.51562 3.0391-0.60156c1.2812-0.10547 1.7422-0.039063 2.4414 0 0.26953-1.4883 0.51953-2.9961 0.51953-4.5586 0-1.457-0.20703-2.8516-0.44141-4.2383-0.69922 0.03125-1.1602 0.082032-2.4414-0.039062-0.99609-0.09375-2.0625-0.26562-3.0391-0.64062s-1.9727-0.97266-2.4414-2.1211c-0.46875-1.1484-0.19922-2.2891 0.23828-3.2383s1.0742-1.7969 1.7188-2.5586c0.83203-0.98438 1.2031-1.293 1.7188-1.7617-1.6875-2.4219-3.7578-4.5273-6.1602-6.2383-0.47266 0.51172-0.76562 0.89844-1.7617 1.7188-0.77344 0.63672-1.6445 1.2539-2.6016 1.6797-0.95703 0.42578-2.0977 0.72266-3.2383 0.23828-1.1406-0.48047-1.7188-1.5-2.0781-2.4805-0.36328-0.98047-0.55859-2.043-0.64062-3.0391-0.10938-1.2812 0-1.7422 0.039063-2.4414-1.4883-0.26953-2.9961-0.51953-4.5586-0.51953zm0 9.5586c8.8867 0 16.121 7.2344 16.121 16.121 0 8.8867-7.2344 16.121-16.121 16.121s-16.121-7.2344-16.121-16.121c0-8.8867 7.2344-16.121 16.121-16.121zm0 2.6797c-7.4531 0-13.48 5.9883-13.48 13.441 0 7.4531 6.0273 13.48 13.48 13.48s13.48-6.0273 13.48-13.48c0-7.4531-6.0273-13.441-13.48-13.441zm0 1.1992c6.7461 0 12.238 5.4961 12.238 12.238 0 6.7461-5.4961 12.238-12.238 12.238-6.7461 0-12.238-5.4961-12.238-12.238 0-6.7461 5.4961-12.238 12.238-12.238zm0 2.8008c-5.2422 0-9.4805 4.1953-9.4805 9.4414 0 5.2422 4.2383 9.4805 9.4805 9.4805 5.2422 0 9.4414-4.2383 9.4414-9.4805 0-5.2422-4.1953-9.4414-9.4414-9.4414z" fill="#e57018"/>
</svg>
