<?xml version="1.0" encoding="UTF-8"?>
<svg width="128pt" height="128pt" version="1.1" viewBox="0 0 128 128" xmlns="http://www.w3.org/2000/svg">
 <g fill="#e57018">
  <path d="m10.238 116.48h107.52v5.1211h-107.52z"/>
  <path d="m116.48 67.84h-16.117c-1.5352-17.918-16.004-32.27-33.914-33.52 0.15234-0.34375 0.10938-1 0.10938-1.3984v-8.0352c7.6797-2.6172 14.078 6.6602 20.48 1.25v-15.738c-6.3984 5.4141-13.566-3.8711-20.473-1.2461-0.023437-1.5234-1.0352-2.7539-2.5625-2.7539-1.5391 0-2.5625 1.25-2.5625 2.7891v23.734c0 0.39844-0.015625 1.0508 0.13281 1.3945-17.934 1.2266-32.402 15.605-33.938 33.523h-16.117v44.801h104.96zm-81.922 34.242c0 2.3633-2.1172 4.2773-4.4805 4.2773s-4.4805-1.918-4.4805-4.2773l0.003906-20.77c0-2.3633 2.1172-4.2773 4.4805-4.2773s4.4805 1.918 4.4805 4.2773zm23.043 0c0 2.3633-2.1172 4.2773-4.4805 4.2773-2.3633 0-4.4805-1.918-4.4805-4.2773v-20.77c0-2.3633 2.1172-4.2773 4.4805-4.2773 2.3633 0 4.4805 1.918 4.4805 4.2773zm21.758 0c0 2.3633-2.1172 4.2773-4.4805 4.2773-2.3633 0-4.4805-1.918-4.4805-4.2773v-20.77c0-2.3633 2.1172-4.2773 4.4805-4.2773 2.3633 0 4.4805 1.918 4.4805 4.2773zm23.039 0c0 2.3633-2.1172 4.2773-4.4805 4.2773s-4.4805-1.918-4.4805-4.2773l0.003906-20.77c0-2.3633 2.1172-4.2773 4.4805-4.2773s4.4805 1.918 4.4805 4.2773z"/>
 </g>
</svg>
