<?xml version="1.0" encoding="UTF-8"?>
<svg width="128pt" height="128pt" version="1.1" viewBox="0 0 128 128" xmlns="http://www.w3.org/2000/svg">
 <g fill="#e57018">
  <path d="m62 68c-15.398 0-28 12.602-28 28s12.602 28 28 28 28-12.602 28-28-12.602-28-28-28zm0 48c-11 0-20-9-20-20s9-20 20-20 20 9 20 20-9 20-20 20z"/>
  <path d="m24 44v56h6.1992c-0.19922-1.3984-0.19922-2.6016-0.19922-4 0-17.602 14.398-32 32-32s32 14.398 32 32c0 1.3984-0.19922 2.6016-0.19922 4h30.199v-56z"/>
  <path d="m112 104h12v20h-12z"/>
  <path d="m30 32h40v8h-40z"/>
  <path d="m52 18v-4h-4v4c-6 0.39844-12 2.3984-18 6v4h40v-4c-6-3.6016-12-5.6016-18-6z"/>
  <path d="m80 24h44v16h-44z"/>
  <path d="m80 4h44v16h-44z"/>
  <path d="m4 48h16v8h-16z"/>
 </g>
</svg>
