<?xml version="1.0" encoding="UTF-8"?>
<svg width="128pt" height="128pt" version="1.1" viewBox="0 0 128 128" xmlns="http://www.w3.org/2000/svg">
 <g fill="#e57018">
  <path d="m97.406 67.328v-11.902c-9.6016 1.5352-19.969 2.4336-29.312 2.8164v0.51172c0 5.5039-4.4805 9.8555-9.8555 9.8555h-7.5508c-5.5039 0-9.8555-4.4805-9.8555-9.8555v-0.51172c-9.3438-0.51172-19.711-1.2812-29.312-2.8164v27.391c0 4.8633 3.9688 8.832 8.832 8.832h45.953c3.7109-13.695 16.129-24.062 31.102-24.32z"/>
  <path d="m50.688 41.473h7.5508c5.375 0 9.8555 4.3516 9.8555 9.8555 13.695-0.51172 24.961-2.0469 33.664-3.7109 1.1523-0.25781 2.0469-1.2812 2.0469-2.5586l0.003906-13.828c0-4.8633-3.9688-8.832-8.832-8.832h-19.711v-6.5273c0-7.0391-5.6328-12.672-12.672-12.672h-16.258c-7.0391 0-12.672 5.6328-12.672 12.672v6.5273h-19.711c-4.8633 0-8.832 3.9688-8.832 8.832v13.695c0 1.2812 0.89453 2.3047 2.0469 2.5586 8.7031 1.6641 19.969 3.1992 33.664 3.7109 0.12891-5.3711 4.4805-9.7227 9.8555-9.7227zm-7.0391-25.602c0-1.5352 1.1523-2.6875 2.6875-2.6875h16.258c1.5352 0 2.6875 1.1523 2.6875 2.6875v6.5273h-21.633z"/>
  <path d="m50.688 48.512c-1.5352 0-2.8164 1.2812-2.8164 2.8164v7.4258c0 1.5352 1.2812 2.8164 2.8164 2.8164h7.4258c1.5352 0 2.8164-1.2812 2.8164-2.8164v-7.4258c0-1.5352-1.2812-2.8164-2.8164-2.8164z"/>
  <path d="m98.047 75.008c-13.695 0-24.832 11.137-24.832 24.832 0 13.695 11.137 24.832 24.832 24.832s24.832-11.008 24.832-24.703-11.137-24.961-24.832-24.961zm0 39.68c-8.1914 0-14.848-6.6562-14.848-14.848 0-2.1758 0.51172-4.3516 1.4062-6.2734l19.711 19.711c-2.043 1.0273-4.0938 1.4102-6.2695 1.4102zm13.312-8.4492-19.711-19.711c1.9219-0.89453 4.0977-1.4062 6.2734-1.4062 8.1914 0 14.848 6.6562 14.848 14.848 0 2.1758-0.38672 4.2227-1.4102 6.2695z"/>
 </g>
</svg>
