<?xml version="1.0" encoding="UTF-8"?>
<svg width="128pt" height="128pt" version="1.1" viewBox="0 0 128 128" xmlns="http://www.w3.org/2000/svg">
 <g fill="#e57018">
  <path d="m52 84c-2.2109 0-4 1.7891-4 4s1.7891 4 4 4h10v-4c0-0.80078 0.47656-1.5234 1.2109-1.8398l5.0469-2.1602z"/>
  <path d="m52 100c0 1.0625 0.42188 2.0781 1.1719 2.8281s1.7656 1.1719 2.8281 1.1719h6v-8h-6c-2.2109 0-4 1.7891-4 4z"/>
  <path d="m53.863 80h22.137v-20c0-4.418 3.582-8 8-8 1.4102 0.007812 2.7891 0.39062 4 1.1133v-25.113h-48v38.137c3.5195 0.44922 6.7891 2.0547 9.3008 4.5625 2.5078 2.5117 4.1133 5.7812 4.5625 9.3008zm-3.8633-42h4v-6h4v12h4v-10c0-1.1055 0.89453-2 2-2h8c0.53125 0 1.0391 0.21094 1.4141 0.58594s0.58594 0.88281 0.58594 1.4141v4h4v4h-4v6h-4v-12h-4v10c0 0.53125-0.21094 1.0391-0.58594 1.4141s-0.88281 0.58594-1.4141 0.58594h-8c-1.1055 0-2-0.89453-2-2v-4h-4z"/>
  <path d="m40 80h9.8359c-0.86328-5.0312-4.8047-8.9727-9.8359-9.8359z"/>
  <path d="m38 8h52v8h-52z"/>
  <path d="m16 28h20v8h-20z"/>
  <path d="m94 8v12h-60v-12h-26v36h28v-4h-24v-16h104v16h-24v4h28v-36zm-66 8h-12v4h-4v-8h16zm88 4h-4v-4h-12v-4h16z"/>
  <path d="m92 28h20v8h-20z"/>
  <path d="m92 82h-4v-22c0-2.2109-1.7891-4-4-4s-4 1.7891-4 4v22c0 0.80078-0.47656 1.5234-1.2109 1.8398l-12.789 5.4766v15.855l5.4141 5.4141c0.375 0.375 0.58594 0.88281 0.58594 1.4141v8h24v-8c0-0.25391 0.046875-0.50781 0.14062-0.74219l11.48-28.703-15.621-14.066z"/>
  <path d="m28 81.172v-29.172h-4v29.172l-2.5859-2.5859-2.8281 2.8281 6 6c0.78125 0.78125 2.0469 0.78125 2.8281 0l6-6-2.8281-2.8281z"/>
 </g>
</svg>
