<?xml version="1.0" encoding="UTF-8"?>
<svg width="128pt" height="128pt" version="1.1" viewBox="0 0 128 128" xmlns="http://www.w3.org/2000/svg">
 <path d="m124.36 46.477c-0.80469-2.5586-2.7383-4.2227-4.3281-3.7266-1.293 0.41016-1.9453 2.1523-1.7031 4.1602l-15.477 2.9453c-1.0742-2.6758-2.418-5.2109-4.0078-7.5508l6.5039-6.1055c0.74219 0.69141 1.6367 0.93359 2.1758 0.53906 0.66406-0.48828 0.5625-1.7656-0.23047-2.8398-0.79297-1.0742-1.9844-1.5469-2.6367-1.0625-0.55078 0.39844-0.57422 1.332-0.12891 2.2383l-7.7422 4.4141c-2.1641-2.6758-4.6602-5.0703-7.4258-7.1172l6.6953-14.285c1.8945 0.74219 3.7383 0.53906 4.4531-0.61328 0.87109-1.4062-0.25781-3.6992-2.5352-5.1055s-4.8242-1.4219-5.707-0.011719c-0.71875 1.1523-0.078125 2.8945 1.4219 4.2617l-9.832 12.312c-2.625-1.3711-5.4141-2.457-8.3086-3.2266l0.88281-8.8711c1.0117 0.039063 1.8438-0.37109 1.9961-1.0234 0.17969-0.80469-0.74219-1.6914-2.0469-1.9844-1.3047-0.28125-2.5078 0.14062-2.6875 0.94531-0.14062 0.66406 0.44922 1.3828 1.3828 1.7656l-2.9297 8.4219c-2.4453-0.42188-4.9531-0.64062-7.5117-0.60156l-3.3125-15.395c1.957-0.5625 3.3008-1.832 3.1758-3.1875-0.15234-1.6523-2.4453-2.7891-5.1211-2.5352-2.6758 0.25781-4.7109 1.793-4.543 3.4414 0.12891 1.3555 1.6914 2.3555 3.7109 2.5352l-0.37109 15.758c-3.1367 0.53906-6.1445 1.4336-8.9727 2.6367l-4.75-7.5391c0.82031-0.60156 1.2305-1.4219 0.93359-2.0352-0.35937-0.74219-1.625-0.88281-2.8281-0.30859-1.2031 0.57422-1.8945 1.6523-1.5352 2.3945 0.29297 0.61328 1.1914 0.82031 2.1758 0.55078l2.8555 8.4336c-2.3438 1.2422-4.5586 2.7148-6.5938 4.3633l-12.172-10.035c1.1914-1.6523 1.4453-3.4805 0.5-4.4688-1.1523-1.2031-3.6484-0.66406-5.582 1.1914s-2.5742 4.3281-1.4219 5.5312c0.93359 0.98438 2.7891 0.79297 4.4805-0.32031l9.4961 12.582c-1.4453 1.6133-2.7656 3.3555-3.9414 5.1836l-8.1797-3.5469c0.34375-0.96094 0.21875-1.8672-0.37109-2.2148-0.71875-0.41016-1.8438 0.17969-2.5078 1.3438-0.67969 1.1523-0.64062 2.4336 0.078126 2.8398 0.58984 0.34375 1.4453 0 2.1133-0.76953l7.1289 5.3633c-1.8828 3.5703-3.2383 7.4375-3.9922 11.496l-15.77 0.25781c-0.16797-2.0234-1.1641-3.5859-2.5078-3.7266-1.6523-0.16797-3.1992 1.8555-3.4805 4.5312-0.26953 2.6641 0.84375 4.9648 2.4961 5.1328 1.3555 0.14062 2.6367-1.2031 3.2109-3.1484l15.367 3.4102c-0.039063 1.5859 0.011718 3.1992 0.16797 4.8125 0.11328 1.2539 0.29297 2.4844 0.52344 3.6875l-8.3984 3.0195c-0.41016-0.93359-1.125-1.5117-1.793-1.3555-0.80469 0.19141-1.2148 1.3945-0.91016 2.6992 0.30859 1.3047 1.2031 2.2031 2.0078 2.0234 0.66406-0.15234 1.0508-0.98438 1.0117-2.0078l8.8594-0.98438c0.58984 2.1367 1.3555 4.1875 2.2656 6.1562l-12.711 9.332c-1.3047-1.5625-3.0195-2.2539-4.1992-1.5859-1.4453 0.82031-1.5352 3.3672-0.21875 5.6953 1.3203 2.3281 3.5586 3.5586 5.0039 2.7383 1.1758-0.66406 1.4609-2.5078 0.79297-4.4297l14.527-6.1055c2.0234 2.9961 4.4297 5.707 7.1406 8.0508l-4.6836 7.5898c-0.89453-0.47266-1.8164-0.47266-2.2383 0.050781-0.51172 0.65234-0.078125 1.8438 0.96094 2.6758 1.0508 0.83203 2.3164 0.97266 2.8281 0.33203 0.42188-0.52344 0.20312-1.4336-0.46094-2.2031l6.3242-6.2969c2.7266 1.9844 5.707 3.6367 8.8711 4.8906l-2.7891 15.527c-2.0234-0.23047-3.75 0.44922-4.1484 1.7422-0.48828 1.5859 1.2031 3.5078 3.7617 4.2891 2.5586 0.78125 5.0312 0.12891 5.5156-1.4609 0.39844-1.3047-0.66406-2.8164-2.4688-3.7617l6.3281-14.391c2.3555 0.52344 4.7891 0.84375 7.2695 0.93359l1.0898 8.8594c-1 0.19141-1.7148 0.76953-1.7148 1.4453 0 0.83203 1.0898 1.4961 2.4336 1.4844 1.332 0 2.418-0.67969 2.418-1.5117 0-0.67969-0.73047-1.2422-1.7266-1.4219l1.0117-8.8711c0.62891-0.027344 1.2656-0.078125 1.8945-0.12891 3.7891-0.35938 7.3984-1.2305 10.777-2.5234l8.4727 13.301c-1.6367 1.2031-2.457 2.8672-1.8555 4.0977 0.71875 1.4961 3.2656 1.7539 5.6719 0.58984 2.4062-1.1641 3.7891-3.3164 3.0586-4.8125-0.58984-1.2305-2.4062-1.625-4.3633-1.0898l-5.1328-14.887c2.0742-1.2031 4.0312-2.5977 5.8359-4.1328l6.7695 5.7969c-0.60156 0.80469-0.75391 1.7266-0.29297 2.2266 0.5625 0.60156 1.8164 0.37109 2.7891-0.53906 0.98437-0.91016 1.3203-2.1367 0.76953-2.7383-0.46094-0.5-1.3828-0.42188-2.2383 0.11328l-5.2344-7.2188c2.6758-2.6875 4.9648-5.7461 6.7969-9.0742l15.055 4.7109c-0.47266 1.9727-0.027344 3.7773 1.2148 4.3281 1.5117 0.67969 3.6211-0.75391 4.7227-3.1992 1.0898-2.4453 0.75391-4.9805-0.75391-5.6562-1.2422-0.55078-2.8789 0.30859-4.0312 1.9844l-13.531-8.0781c1.1133-3.1094 1.8555-6.3867 2.1875-9.7656l8.8945-0.5625c0.12891 1.0117 0.66406 1.7656 1.3438 1.8047 0.83203 0.039063 1.5469-1 1.625-2.3438 0.078125-1.332-0.53906-2.457-1.3711-2.4961-0.67969-0.039062-1.293 0.65234-1.5234 1.6523l-8.793-1.5742c0.011719-1.4219-0.039062-2.8555-0.17969-4.2891-0.16797-1.7656-0.44922-3.4961-0.83203-5.1836l14.375-6.4766c0.96094 1.793 2.4844 2.8398 3.7773 2.4336 1.5859-0.5 2.2109-2.9844 1.4062-5.543z" fill="#e57018"/>
</svg>
